# xmcd
#
# Track frame offsets:
#	182
#	49547
#	81215
#	179782
#	248567
#	264400
#
# Disc length: 4398
#
# Revision: 1
# Processed by: cddbd v1.5.1PL0 Copyright (c) Steve Scherf et al.
# Submitted via: CDex 1.51
# Normalized: r0:TRMNUM
#
DISCID=48112c06
DTITLE=V 61 Charles Mingus - Fable Of Faubus
DYEAR=1991
DGENRE=Jazz
TTITLE0=Fable Of Faubus
TTITLE1=O.P.O.P.
TTITLE2=Goodbye Pork Pie Lady
TTITLE3=Orange Was the Colour of Her Dress, Then Blue Silk
TTITLE4=Sophisticated Mood
TTITLE5=Ellington Medley
EXTD=YEAR: 1991
EXTT0=
EXTT1=
EXTT2=
EXTT3=
EXTT4=
EXTT5=
PLAYORDER=
